<svg xmlns="http://www.w3.org/2000/svg" xmlns:xlink="http://www.w3.org/1999/xlink" width="1em" height="1em" style="-ms-transform: rotate(360deg); -webkit-transform: rotate(360deg); transform: rotate(360deg);" preserveAspectRatio="xMidYMid meet" viewBox="0 0 24 24"><path d="M.5 2.769L1.777 1.5 21 20.723 19.732 22l-3-3H16v2H8v-2H3c-1.1 0-2-.9-2-2V5c0-.482.173-.926.46-1.272l-.96-.96zM21 17V5H7.823l-2-2H21c1.1 0 2 .9 2 2l-.01 12c0 .855-.537 1.59-1.294 1.874L19.823 17H21zM3 17h11.732L3 5.269V17z" fill="#626262"/></svg>